# xmcd
#
# Track frame offsets:
#	150
#	8765
#	23179
#	32771
#	43900
#	55659
#	68099
#	79050
#	90441
#	99725
#	111207
#	121785
#	131839
#	142370
#	153334
#	164523
#
# Disc length: 2359 seconds
#
# Revision: 1
# Processed by: cddbd v1.5.2PL0 Copyright (c) Steve Scherf et al.
# Submitted via: SynApp - FreeCDDB Version: 2.4
#
DISCID=d5093510
DTITLE=Patsy Cline - Ain´t no wheels on this ship
DYEAR=1999
DGENRE=country
TTITLE0=Ain´t no wheels on this ship
TTITLE1=Then you´ll know
TTITLE2=I´m blue again
TTITLE3=Hungry for love
TTITLE4=If I could only
TTITLE5=Finger prints
TTITLE6=I can´t forget you
TTITLE7=In care of the blues
TTITLE8=Love, love, love me honey do
TTITLE9=Let the teardrops fall
TTITLE10=Stop, look and listen
TTITLE11=Three cigarettes in an ash tray
TTITLE12=I don´t wanna
TTITLE13=Hidin´ out
TTITLE14=Cry not for me
TTITLE15=Just a closer walk like this
EXTD=
EXTT0=
EXTT1=
EXTT2=
EXTT3=
EXTT4=
EXTT5=
EXTT6=
EXTT7=
EXTT8=
EXTT9=
EXTT10=
EXTT11=
EXTT12=
EXTT13=
EXTT14=
EXTT15=
PLAYORDER=
